<svg width="28" height="28" viewBox="0 0 28 28" fill="none" xmlns="http://www.w3.org/2000/svg">
<g clip-path="url(#clip0_519_22)" filter="url(#filter0_d_519_22)">
<mask id="mask0_519_22" style="mask-type:alpha" maskUnits="userSpaceOnUse" x="4" y="0" width="20" height="20">
<path d="M4 2.24719C4 1.0061 5.0061 0 6.24719 0H21.7284C22.9695 0 23.9756 1.0061 23.9756 2.24719V17.7284C23.9756 18.9695 22.9695 19.9756 21.7284 19.9756H6.24719C5.0061 19.9756 4 18.9695 4 17.7284V2.24719Z" fill="white"/>
</mask>
<g mask="url(#mask0_519_22)">
<path fill-rule="evenodd" clip-rule="evenodd" d="M14.7212 17.381C13.7837 16.4434 13.7837 14.9234 14.7212 13.9858C15.8828 12.8242 15.8828 10.9409 14.7212 9.77925C13.7837 8.8417 13.7837 7.32162 14.7212 6.38406C15.8828 5.22245 15.8828 3.33912 14.7212 2.17751C13.7837 1.23995 13.7837 -0.280126 14.7212 -1.21768L15.1874 -1.68383L14.7817 -2.08951L14.3155 -1.62336C13.1539 -0.461756 13.1539 1.42158 14.3155 2.58319C15.2531 3.52075 15.2531 5.04082 14.3155 5.97838C13.1539 7.13999 13.1539 9.02333 14.3155 10.1849C15.2531 11.1225 15.2531 12.6426 14.3155 13.5801C13.1539 14.7417 13.1539 16.6251 14.3155 17.7867L14.4231 17.8943C15.3013 18.7724 15.3013 20.1962 14.4231 21.0743L14.8288 21.48C15.931 20.3778 15.931 18.5908 14.8288 17.4886L14.7212 17.381ZM16.6575 17.381C15.72 16.4434 15.72 14.9234 16.6575 13.9858C17.8191 12.8242 17.8191 10.9409 16.6575 9.77925C15.72 8.8417 15.72 7.32162 16.6575 6.38406C17.8191 5.22245 17.8191 3.33912 16.6575 2.17751C15.72 1.23995 15.72 -0.280126 16.6575 -1.21768L17.1237 -1.68383L16.718 -2.08951L16.2518 -1.62336C15.0902 -0.461756 15.0902 1.42158 16.2518 2.58319C17.1894 3.52075 17.1894 5.04082 16.2518 5.97838C15.0902 7.13999 15.0902 9.02333 16.2518 10.1849C17.1894 11.1225 17.1894 12.6426 16.2518 13.5801C15.0902 14.7417 15.0902 16.6251 16.2518 17.7867L16.3594 17.8943C17.2376 18.7724 17.2376 20.1962 16.3594 21.0743L16.7651 21.48C17.8673 20.3778 17.8673 18.5908 16.7651 17.4886L16.6575 17.381ZM18.5938 13.9858C17.6563 14.9234 17.6563 16.4434 18.5938 17.381L18.7014 17.4886C19.8036 18.5908 19.8036 20.3778 18.7014 21.48L18.2957 21.0743C19.1739 20.1962 19.1739 18.7724 18.2957 17.8943L18.1881 17.7867C17.0265 16.6251 17.0265 14.7417 18.1881 13.5801C19.1257 12.6426 19.1257 11.1225 18.1881 10.1849C17.0265 9.02333 17.0265 7.13999 18.1881 5.97838C19.1257 5.04082 19.1257 3.52075 18.1881 2.58319C17.0265 1.42158 17.0265 -0.461756 18.1881 -1.62336L18.6543 -2.08951L19.06 -1.68383L18.5938 -1.21768C17.6563 -0.280126 17.6563 1.23995 18.5938 2.17751C19.7554 3.33912 19.7554 5.22245 18.5938 6.38406C17.6563 7.32162 17.6563 8.8417 18.5938 9.77925C19.7554 10.9409 19.7554 12.8242 18.5938 13.9858ZM20.5301 17.381C19.5925 16.4434 19.5925 14.9234 20.5301 13.9858C21.6917 12.8242 21.6917 10.9409 20.5301 9.77925C19.5925 8.8417 19.5925 7.32162 20.5301 6.38406C21.6917 5.22245 21.6917 3.33912 20.5301 2.17751C19.5925 1.23995 19.5925 -0.280126 20.5301 -1.21768L20.9963 -1.68383L20.5906 -2.08951L20.1244 -1.62336C18.9628 -0.461756 18.9628 1.42158 20.1244 2.58319C21.062 3.52075 21.062 5.04082 20.1244 5.97838C18.9628 7.13999 18.9628 9.02333 20.1244 10.1849C21.062 11.1225 21.062 12.6426 20.1244 13.5801C18.9628 14.7417 18.9628 16.6251 20.1244 17.7867L20.232 17.8943C21.1101 18.7724 21.1101 20.1962 20.232 21.0743L20.6377 21.48C21.7399 20.3778 21.7399 18.5908 20.6377 17.4886L20.5301 17.381ZM22.4664 13.9858C21.5288 14.9234 21.5288 16.4434 22.4664 17.381L22.574 17.4886C23.6762 18.5908 23.6762 20.3778 22.574 21.48L22.1683 21.0743C23.0464 20.1962 23.0464 18.7724 22.1683 17.8943L22.0607 17.7867C20.8991 16.6251 20.8991 14.7417 22.0607 13.5801C22.9983 12.6426 22.9983 11.1225 22.0607 10.1849C20.8991 9.02333 20.8991 7.13999 22.0607 5.97838C22.9983 5.04082 22.9983 3.52075 22.0607 2.58319C20.8991 1.42158 20.8991 -0.461756 22.0607 -1.62336L22.5269 -2.08951L22.9325 -1.68383L22.4664 -1.21768C21.5288 -0.280127 21.5288 1.23995 22.4664 2.17751C23.628 3.33912 23.628 5.22245 22.4664 6.38406C21.5288 7.32162 21.5288 8.8417 22.4664 9.77925C23.628 10.9409 23.628 12.8242 22.4664 13.9858ZM24.4027 17.381C23.4651 16.4434 23.4651 14.9234 24.4027 13.9858C25.5643 12.8242 25.5643 10.9409 24.4027 9.77925C23.4651 8.8417 23.4651 7.32162 24.4027 6.38406C25.5643 5.22245 25.5643 3.33912 24.4027 2.17751C23.4651 1.23995 23.4651 -0.280127 24.4027 -1.21768L24.8688 -1.68383L24.4632 -2.08951L23.997 -1.62336C22.8354 -0.461756 22.8354 1.42158 23.997 2.58319C24.9346 3.52075 24.9346 5.04082 23.997 5.97838C22.8354 7.13999 22.8354 9.02333 23.997 10.1849C24.9346 11.1225 24.9346 12.6426 23.997 13.5801C22.8354 14.7417 22.8354 16.6251 23.997 17.7867L24.1046 17.8943C24.9827 18.7724 24.9827 20.1962 24.1046 21.0743L24.5103 21.48C25.6125 20.3778 25.6125 18.5908 24.5103 17.4886L24.4027 17.381Z" fill="white"/>
</g>
<g opacity="0.95" filter="url(#filter1_bd_519_22)">
<path d="M4 2.24719C4 1.0061 5.0061 0 6.24719 0H21.7528C22.9939 0 24 1.0061 24 2.24719V17.7528C24 18.9939 22.9939 20 21.7528 20H6.24719C5.0061 20 4 18.9939 4 17.7528V2.24719Z" fill="#13A8D8" fill-opacity="0.8"/>
<path d="M4 2.24719C4 1.0061 5.0061 0 6.24719 0H21.7528C22.9939 0 24 1.0061 24 2.24719V17.7528C24 18.9939 22.9939 20 21.7528 20H6.24719C5.0061 20 4 18.9939 4 17.7528V2.24719Z" fill="url(#paint0_radial_519_22)" fill-opacity="0.8"/>
<path d="M4 2.24719C4 1.0061 5.0061 0 6.24719 0H21.7528C22.9939 0 24 1.0061 24 2.24719V17.7528C24 18.9939 22.9939 20 21.7528 20H6.24719C5.0061 20 4 18.9939 4 17.7528V2.24719Z" fill="url(#paint1_linear_519_22)" fill-opacity="0.89"/>
</g>
</g>
<defs>
<filter id="filter0_d_519_22" x="0" y="0" width="28" height="28" filterUnits="userSpaceOnUse" color-interpolation-filters="sRGB">
<feFlood flood-opacity="0" result="BackgroundImageFix"/>
<feColorMatrix in="SourceAlpha" type="matrix" values="0 0 0 0 0 0 0 0 0 0 0 0 0 0 0 0 0 0 127 0" result="hardAlpha"/>
<feOffset dy="4"/>
<feGaussianBlur stdDeviation="2"/>
<feComposite in2="hardAlpha" operator="out"/>
<feColorMatrix type="matrix" values="0 0 0 0 0 0 0 0 0 0 0 0 0 0 0 0 0 0 0.25 0"/>
<feBlend mode="normal" in2="BackgroundImageFix" result="effect1_dropShadow_519_22"/>
<feBlend mode="normal" in="SourceGraphic" in2="effect1_dropShadow_519_22" result="shape"/>
</filter>
<filter id="filter1_bd_519_22" x="-16" y="-20" width="60" height="60" filterUnits="userSpaceOnUse" color-interpolation-filters="sRGB">
<feFlood flood-opacity="0" result="BackgroundImageFix"/>
<feGaussianBlur in="BackgroundImageFix" stdDeviation="6.7217"/>
<feComposite in2="SourceAlpha" operator="in" result="effect1_backgroundBlur_519_22"/>
<feColorMatrix in="SourceAlpha" type="matrix" values="0 0 0 0 0 0 0 0 0 0 0 0 0 0 0 0 0 0 127 0" result="hardAlpha"/>
<feOffset/>
<feGaussianBlur stdDeviation="10"/>
<feColorMatrix type="matrix" values="0 0 0 0 1 0 0 0 0 1 0 0 0 0 1 0 0 0 0.25 0"/>
<feBlend mode="normal" in2="effect1_backgroundBlur_519_22" result="effect2_dropShadow_519_22"/>
<feBlend mode="normal" in="SourceGraphic" in2="effect2_dropShadow_519_22" result="shape"/>
</filter>
<radialGradient id="paint0_radial_519_22" cx="0" cy="0" r="1" gradientUnits="userSpaceOnUse" gradientTransform="translate(4.58506 19.3905) rotate(-44.2061) scale(25.5927)">
<stop stop-color="#D3199F"/>
<stop offset="1" stop-color="#D3199F" stop-opacity="0.01"/>
</radialGradient>
<linearGradient id="paint1_linear_519_22" x1="8.30436" y1="1.2537" x2="18.3757" y2="27.038" gradientUnits="userSpaceOnUse">
<stop stop-color="#F9F9F9"/>
<stop offset="1" stop-color="#07F21F" stop-opacity="0"/>
</linearGradient>
<clipPath id="clip0_519_22">
<rect width="20" height="20" fill="white" transform="translate(4)"/>
</clipPath>
</defs>
</svg>
